<?xml version="1.0" encoding="utf-8"?>
<!-- Generator: Adobe Illustrator 25.0.1, SVG Export Plug-In . SVG Version: 6.00 Build 0)  -->
<svg version="1.1" id="Layer_1" xmlns="http://www.w3.org/2000/svg" xmlns:xlink="http://www.w3.org/1999/xlink" x="0px" y="0px"
	 viewBox="0 0 205.2 108" style="enable-background:new 0 0 205.2 108;" xml:space="preserve">
<style type="text/css">
	.st0{fill:#871F41;}
	.st1{fill:#E77724;}
</style>
<g>
	<path class="st0" d="M108.9,16.8c-6.5,0-12.4,3.6-15.5,9.3l-3.8,7l-0.4,0.8l-0.4,0.8v0L77.2,55.9l-18.7-35h8.3l6.7,12.5l3.5,6.5
		l3.6-6.5l7-12.5h6.1c1.5-1.6,3.2-3,5.1-4.1H85.3l-8.2,14.6l-7.9-14.6H51.7l25.5,47.7l14.2-26.3l2.4-4.4l0.4-0.8l2.7-5
		c0.1-0.3,0.3-0.5,0.5-0.8c1.8-2.9,4.6-4.9,7.9-5.8c0.9-0.2,1.8-0.4,2.7-0.5c0.3,0,0.6,0,0.9,0h37.2l-3.8,7h-17.2l-1.2,2.2L108.1,60
		h-8.4l14-25.9l3.2-6h-16.8c-1,1.5-2.3,4.1-2.3,4.1H110l-17.2,32h17.7L127.6,32h17.2l8.1-15.2H108.9z"/>
</g>
<g>
	<path class="st1" d="M130.6,77.9v-2.8h12.3v2.8h-4.7V91h-2.9V77.9H130.6z"/>
	<path class="st1" d="M155.5,91h-10.2V75.1h10.2v2.8h-7.3v3.7h5.9v2.8h-5.9v3.8h7.3V91z"/>
	<path class="st1" d="M160.3,83.1c0,0.7,0.1,1.4,0.4,2c0.3,0.6,0.7,1.2,1.1,1.7c0.5,0.5,1,0.8,1.7,1.1c0.6,0.3,1.3,0.4,2,0.4
		c0.6,0,1.1-0.1,1.6-0.2c0.5-0.2,0.9-0.4,1.4-0.7c0.2-0.1,0.3-0.2,0.5-0.2c0.2-0.1,0.4-0.1,0.6-0.1c0.3,0,0.6,0.1,0.8,0.2
		c0.2,0.1,0.4,0.3,0.6,0.4l0.7,0.7c-0.4,0.4-0.9,0.8-1.3,1.2c-0.5,0.4-1,0.7-1.5,0.9c-0.5,0.3-1.1,0.4-1.6,0.6s-1.1,0.2-1.7,0.2
		c-1.1,0-2.2-0.2-3.2-0.6c-1-0.4-1.9-1-2.6-1.7s-1.3-1.6-1.7-2.6c-0.4-1-0.6-2-0.6-3.2c0-0.7,0.1-1.5,0.3-2.2
		c0.2-0.7,0.5-1.3,0.8-1.9c0.4-0.6,0.8-1.1,1.3-1.6c0.5-0.5,1-0.9,1.6-1.3c0.6-0.4,1.3-0.6,1.9-0.8c0.7-0.2,1.4-0.3,2.2-0.3
		c0.6,0,1.2,0.1,1.7,0.2c0.6,0.1,1.1,0.3,1.6,0.6c0.5,0.3,1,0.6,1.5,0.9c0.5,0.4,0.9,0.8,1.3,1.2l-0.7,0.7c-0.2,0.2-0.4,0.3-0.7,0.5
		c-0.2,0.1-0.5,0.2-0.8,0.2c-0.4,0-0.8-0.1-1.1-0.4c-0.4-0.3-0.9-0.5-1.4-0.7c-0.5-0.2-1-0.2-1.6-0.2c-0.7,0-1.4,0.1-2,0.4
		c-0.6,0.3-1.2,0.6-1.7,1.1c-0.5,0.5-0.9,1-1.1,1.6C160.5,81.7,160.3,82.3,160.3,83.1z"/>
	<path class="st1" d="M188.6,91h-2.9v-6.6h-7.8V91H175V75.1h2.9v6.5h7.8v-6.5h2.9V91z"/>
	<path class="st1" d="M24.5,86.2c0,0,1.4-3.3,2.1-4.9c0.7-1.6,1.4-3.3,2.2-4.9c0.2-0.4,0.4-0.7,0.8-0.9c0.3-0.2,0.7-0.3,1.1-0.3h1.8
		L25.5,91h-2.6L16,75.1h1.8c0.2,0,0.4,0,0.6,0.1s0.4,0.1,0.5,0.3c0.2,0.1,0.3,0.2,0.5,0.4c0.1,0.1,0.2,0.3,0.3,0.5l4.3,9.8l0.3,0.6
		L24.5,86.2z"/>
	<path class="st1" d="M37.8,91h-2.9V75.1h2.9V91z"/>
	<path class="st1" d="M70.5,82.5v6.7c-0.4,0.4-0.8,0.7-1.3,1c-0.5,0.3-1,0.5-1.5,0.6c-0.5,0.2-1,0.3-1.6,0.3
		c-0.6,0.1-1.1,0.1-1.7,0.1c-1.1,0-2.2-0.2-3.2-0.6c-1-0.4-1.8-1-2.6-1.7c-0.7-0.7-1.3-1.6-1.7-2.6c-0.4-1-0.6-2-0.6-3.2
		c0-0.7,0.1-1.5,0.3-2.2c0.2-0.7,0.5-1.3,0.8-1.9c0.4-0.6,0.8-1.1,1.3-1.6c0.5-0.5,1-0.9,1.6-1.3c0.6-0.4,1.2-0.6,1.9-0.8
		C63,75,63.7,75,64.5,75c0.6,0,1.2,0.1,1.7,0.2c0.6,0.1,1.1,0.3,1.6,0.6c0.5,0.3,1,0.6,1.5,0.9c0.5,0.4,0.9,0.8,1.3,1.2l-0.7,0.7
		c-0.2,0.2-0.4,0.4-0.7,0.5c-0.2,0.1-0.5,0.2-0.8,0.2c-0.4,0-0.8-0.1-1.1-0.4c-0.4-0.3-0.9-0.5-1.4-0.7c-0.5-0.2-1-0.2-1.6-0.2
		c-0.7,0-1.4,0.1-2,0.4c-0.6,0.3-1.2,0.6-1.7,1.1c-0.5,0.5-0.8,1-1.1,1.6c-0.3,0.6-0.4,1.3-0.4,2c0,0.7,0.1,1.4,0.4,2
		c0.3,0.6,0.7,1.2,1.2,1.7c0.5,0.5,1.1,0.8,1.7,1.1c0.6,0.3,1.3,0.4,2,0.4c0.3,0,0.7,0,1.1-0.1c0.3,0,0.6-0.1,1-0.2
		c0.3-0.1,0.7-0.2,1-0.4v-2.2c-0.3,0-0.6,0-0.9,0c-0.3,0-0.6-0.1-0.8-0.2c-0.2-0.1-0.4-0.3-0.6-0.6c-0.1-0.3-0.2-0.7-0.2-1.2v-0.9
		H70.5z"/>
	<path class="st1" d="M78.1,91h-2.9V75.1h2.9V91z"/>
	<path class="st1" d="M85.8,79.1V91h-2.9V75.1h2.6c0.4,0,0.7,0.1,0.9,0.2c0.3,0.1,0.5,0.3,0.6,0.5c1.1,1.6,7.1,10,7.1,10V75.1H97V91
		h-2.7L85.8,79.1z"/>
	<path class="st1" d="M104.8,91h-2.9V75.1h2.9V91z"/>
	<path class="st1" d="M116.8,75.1h-2.6L107.2,91h1.8c0.2,0,0.4,0,0.6-0.1c0.2-0.1,0.4-0.1,0.5-0.2c0.2-0.1,0.3-0.2,0.5-0.4
		s0.2-0.3,0.3-0.5l0.9-2.2h0l1.7-3.9h0l1.9-4.4l2.3,5.4h-1.3c-1,0-1.9,0.6-2.3,1.5l-0.6,1.4h5.5l0.9,2.2c0.2,0.4,0.4,0.7,0.8,0.9
		c0.3,0.2,0.7,0.3,1.1,0.3h1.8L116.8,75.1z"/>
	<path class="st1" d="M45.5,91h-2.9V75.1h6c0.8,0,1.5,0.1,2.1,0.4c0.6,0.3,1.2,0.7,1.6,1.1s0.8,1,1,1.6c0.2,0.6,0.4,1.2,0.4,1.9
		c0,0.5-0.1,0.9-0.2,1.4c-0.1,0.4-0.3,0.9-0.6,1.3s-0.5,0.8-0.9,1.1c-0.4,0.3-0.8,0.6-1.2,0.8c0.8,1.1,1.5,2.1,2.3,3.1
		c0.8,1,1.5,2.1,2.3,3.1h-2.3c-0.2,0-0.3,0-0.5-0.1c-0.2-0.1-0.4-0.2-0.6-0.3c-0.2-0.1-0.5-0.3-0.7-0.6c-0.2-0.2-0.5-0.5-0.7-0.8
		l-2.9-3.9h-2.2V91z M48.7,82.4c0.3,0,0.5-0.1,0.8-0.2c0.3-0.1,0.5-0.3,0.7-0.5c0.2-0.2,0.3-0.4,0.4-0.7c0.1-0.3,0.2-0.5,0.2-0.8
		c0-0.3-0.1-0.6-0.2-0.8c-0.1-0.3-0.3-0.5-0.4-0.7c-0.2-0.2-0.4-0.4-0.7-0.5C49.2,78.1,49,78,48.7,78h-3.1v4.3H48.7z"/>
	<g>
		<path class="st1" d="M191.9,88.5c0.7,0,1.3,0.6,1.3,1.3c0,0.7-0.6,1.3-1.3,1.3c-0.7,0-1.3-0.6-1.3-1.3
			C190.5,89.1,191.1,88.5,191.9,88.5z M191.9,91c0.7,0,1.2-0.5,1.2-1.2c0-0.7-0.5-1.2-1.2-1.2c-0.7,0-1.2,0.5-1.2,1.2
			C190.7,90.5,191.2,91,191.9,91z M192.1,90l0.4,0.5c0,0,0,0,0,0h-0.1c0,0,0,0-0.1,0l-0.4-0.5h-0.3v0.5c0,0,0,0,0,0h-0.1
			c0,0,0,0,0,0v-1.3c0,0,0,0,0,0h0.5c0.2,0,0.5,0.1,0.5,0.4C192.4,89.8,192.2,89.9,192.1,90z M191.9,89.8c0.2,0,0.3-0.1,0.3-0.2
			c0-0.2-0.1-0.2-0.3-0.2h-0.3v0.5H191.9z"/>
	</g>
</g>
</svg>
